# xmcd
#
# Track frame offsets:
#	150
#	13268
#	26776
#	44126
#	58903
#	72298
#	88164
#	101439
#	115629
#	133891
#	144601
#	157919
#	171991
#	184680
#
# Disc length: 2628 seconds
# Revision: 0
# Processed by: cddbd v1.5.2PL0 Copyright (c) Steve Scherf et al.
# Submitted via: dBpowerAMP V12.0
#
DISCID=cd0a420e
DTITLE=Sidney Devine - Skiffle Country
DYEAR=2010
DGENRE=
TTITLE0=Cry, cry, cry
TTITLE1=Freight Train
TTITLE2=Tom Dooley
TTITLE3=I'm so lonesome I could cry
TTITLE4=Will the circle be unbroken
TTITLE5=Putting on the style
TTITLE6=Worried man blues
TTITLE7=The Grand Coulee Dam
TTITLE8=Tennessee Waltz
TTITLE9=Move it on over
TTITLE10=California Zephyr
TTITLE11=I'm moving on
TTITLE12=Mocking Bird Hill
TTITLE13=Battle of New Orleans
EXTD=
EXTT0=
EXTT1=
EXTT2=
EXTT3=
EXTT4=
EXTT5=
EXTT6=
EXTT7=
EXTT8=
EXTT9=
EXTT10=
EXTT11=
EXTT12=
EXTT13=
PLAYORDER=
